<?xml version="1.0" standalone="no"?>
<!DOCTYPE svg PUBLIC "-//W3C//DTD SVG 20010904//EN"
 "http://www.w3.org/TR/2001/REC-SVG-20010904/DTD/svg10.dtd">
<svg version="1.0" xmlns="http://www.w3.org/2000/svg"
 width="260.000000pt" height="260.000000pt" viewBox="0 0 260.000000 260.000000"
 preserveAspectRatio="xMidYMid meet">
<metadata>
Created by potrace 1.11, written by Peter Selinger 2001-2013
</metadata>
<g transform="translate(0.000000,260.000000) scale(0.100000,-0.100000)"
fill="#000000" stroke="none">
<path d="M1997 2439 c-109 -26 -197 -116 -197 -201 1 -50 34 -114 69 -132 38
-20 84 -20 121 -1 101 52 89 174 -19 191 -22 4 -48 12 -58 19 -16 12 -16 14 0
39 27 40 61 57 124 63 134 10 205 -91 158 -228 -23 -66 -94 -155 -196 -244
-103 -90 -155 -165 -165 -237 -8 -58 13 -98 52 -98 39 0 41 28 5 92 -37 68
-32 88 24 88 25 0 50 -14 110 -65 103 -85 153 -109 231 -110 123 0 191 88 210
274 5 60 4 71 -8 71 -10 0 -17 -14 -21 -42 -11 -81 -58 -94 -289 -85 -110 5
-159 3 -193 -7 -25 -8 -45 -10 -45 -6 0 20 59 52 139 76 266 80 296 91 347
136 119 105 89 265 -68 364 -75 48 -227 67 -331 43z"/>
<path d="M925 1999 c-469 -148 -476 -152 -542 -238 -56 -73 -92 -223 -94 -392
-1 -173 22 -577 36 -634 44 -168 149 -264 453 -413 86 -43 166 -84 177 -91 19
-12 28 -8 93 40 129 97 387 253 665 403 48 26 87 50 86 54 0 4 -14 18 -31 31
-27 22 -33 23 -52 11 -140 -90 -190 -109 -311 -117 -141 -10 -266 38 -369 141
-67 68 -103 137 -116 222 -5 38 -10 258 -10 489 l1 420 113 -220 c63 -121 127
-243 142 -272 l29 -52 257 112 c142 62 258 114 258 117 0 16 -319 525 -331
527 -8 0 -212 -62 -454 -138z"/>
</g>
</svg>
